HIERARCHY
ROOT Hips
{
	OFFSET 0.000000 0.000000 0.000000
	CHANNELS 6 Xposition Yposition Zposition Zrotation Yrotation Xrotation 
	JOINT Spine1
	{
		OFFSET -0.013727 5.003763 -0.053727
		CHANNELS 3 Zrotation Yrotation Xrotation
		JOINT Spine2
		{
			OFFSET -0.000000 7.125302 -0.029825
			CHANNELS 3 Zrotation Yrotation Xrotation
			JOINT Chest
			{
				OFFSET -0.000001 7.550063 -0.815971
				CHANNELS 3 Zrotation Yrotation Xrotation
				JOINT Neck1
				{
					OFFSET -0.181676 26.311296 -0.553348
					CHANNELS 3 Zrotation Yrotation Xrotation
					JOINT Neck2
					{
						OFFSET -0.000003 7.709399 2.302586
						CHANNELS 3 Zrotation Yrotation Xrotation
						JOINT Head
						{
							OFFSET -0.000005 6.128915 1.953708
							CHANNELS 3 Zrotation Yrotation Xrotation
							JOINT HeadEnd
							{
								OFFSET 0.003598 16.065401 -1.835379
								CHANNELS 3 Zrotation Yrotation Xrotation
								End Site
								{
									OFFSET 0.000000 0.000000 0.000000
								}
							}
							JOINT Jaw
							{
								OFFSET 0.002637 0.475590 3.094941
								CHANNELS 3 Zrotation Yrotation Xrotation
								End Site
								{
									OFFSET 0.000000 0.000000 0.000000
								}
							}
							JOINT LeftEye
							{
								OFFSET 3.206381 5.380207 7.586884
								CHANNELS 3 Zrotation Yrotation Xrotation
								End Site
								{
									OFFSET 0.000000 0.000000 0.000000
								}
							}
							JOINT RightEye
							{
								OFFSET -3.222440 5.361866 7.558233
								CHANNELS 3 Zrotation Yrotation Xrotation
								End Site
								{
									OFFSET 0.000000 0.000000 0.000000
								}
							}
						}
					}
				}
				JOINT LeftShoulder
				{
					OFFSET 1.621652 23.237164 5.113413
					CHANNELS 3 Zrotation Yrotation Xrotation
					JOINT LeftArm
					{
						OFFSET 14.919845 -0.000001 -5.502326
						CHANNELS 3 Zrotation Yrotation Xrotation
						JOINT LeftForeArm
						{
							OFFSET 28.739309 0.000003 -0.002588
							CHANNELS 3 Zrotation Yrotation Xrotation
							JOINT LeftHand
							{
								OFFSET 27.093983 -0.000003 0.002610
								CHANNELS 3 Zrotation Yrotation Xrotation
								JOINT LeftHandThumb1
								{
									OFFSET 2.276481 -1.392045 3.191413
									CHANNELS 3 Zrotation Yrotation Xrotation
									JOINT LeftHandThumb2
									{
										OFFSET 4.012841 -1.828126 1.641655
										CHANNELS 3 Zrotation Yrotation Xrotation
										JOINT LeftHandThumb3
										{
											OFFSET 2.798517 0.000001 -0.000003
											CHANNELS 3 Zrotation Yrotation Xrotation
											JOINT LeftHandThumbEnd
											{
												OFFSET 3.180790 -0.000002 0.000003
												CHANNELS 3 Zrotation Yrotation Xrotation
												End Site
												{
													OFFSET 0.000000 0.000000 0.000000
												}
											}
										}
									}
								}
								JOINT LeftHandIndex1
								{
									OFFSET 3.247552 -0.531998 2.296169
									CHANNELS 3 Zrotation Yrotation Xrotation
									JOINT LeftHandIndex2
									{
										OFFSET 6.364580 0.012062 0.178600
										CHANNELS 3 Zrotation Yrotation Xrotation
										JOINT LeftHandIndex3
										{
											OFFSET 3.662366 0.000001 -0.000000
											CHANNELS 3 Zrotation Yrotation Xrotation
											JOINT LeftHandIndex4
											{
												OFFSET 2.329242 0.000003 0.000003
												CHANNELS 3 Zrotation Yrotation Xrotation
												JOINT LeftHandIndexEnd
												{
													OFFSET 2.759619 -0.180539 -0.113024
													CHANNELS 3 Zrotation Yrotation Xrotation
													End Site
													{
														OFFSET 0.000000 0.000000 0.000000
													}
												}
											}
										}
									}
								}
								JOINT LeftHandMiddle1
								{
									OFFSET 3.163499 0.240982 1.000332
									CHANNELS 3 Zrotation Yrotation Xrotation
									JOINT LeftHandMiddle2
									{
										OFFSET 6.190778 -0.259276 -1.002549
										CHANNELS 3 Zrotation Yrotation Xrotation
										JOINT LeftHandMiddle3
										{
											OFFSET 4.356523 -0.000006 0.000000
											CHANNELS 3 Zrotation Yrotation Xrotation
											JOINT LeftHandMiddle4
											{
												OFFSET 2.996875 -0.000007 0.000001
												CHANNELS 3 Zrotation Yrotation Xrotation
												JOINT LeftHandMiddleEnd
												{
													OFFSET 2.304294 -0.294572 -0.031740
													CHANNELS 3 Zrotation Yrotation Xrotation
													End Site
													{
														OFFSET 0.000000 0.000000 0.000000
													}
												}
											}
										}
									}
								}
								JOINT LeftHandRing1
								{
									OFFSET 2.882642 -0.053650 -0.322543
									CHANNELS 3 Zrotation Yrotation Xrotation
									JOINT LeftHandRing2
									{
										OFFSET 5.854542 -0.486203 -1.373841
										CHANNELS 3 Zrotation Yrotation Xrotation
										JOINT LeftHandRing3
										{
											OFFSET 4.350581 0.000000 0.000003
											CHANNELS 3 Zrotation Yrotation Xrotation
											JOINT LeftHandRing4
											{
												OFFSET 2.651324 0.000006 0.000004
												CHANNELS 3 Zrotation Yrotation Xrotation
												JOINT LeftHandRingEnd
												{
													OFFSET 1.936111 0.077685 -0.000069
													CHANNELS 3 Zrotation Yrotation Xrotation
													End Site
													{
														OFFSET 0.000000 0.000000 0.000000
													}
												}
											}
										}
									}
								}
								JOINT LeftHandPinky1
								{
									OFFSET 2.865499 -0.310004 -1.600378
									CHANNELS 3 Zrotation Yrotation Xrotation
									JOINT LeftHandPinky2
									{
										OFFSET 5.087853 -1.331142 -1.771231
										CHANNELS 3 Zrotation Yrotation Xrotation
										JOINT LeftHandPinky3
										{
											OFFSET 3.070975 0.000003 0.000001
											CHANNELS 3 Zrotation Yrotation Xrotation
											JOINT LeftHandPinky4
											{
												OFFSET 1.549667 -0.000000 0.000001
												CHANNELS 3 Zrotation Yrotation Xrotation
												JOINT LeftHandPinkyEnd
												{
													OFFSET 1.944894 -0.157802 0.057219
													CHANNELS 3 Zrotation Yrotation Xrotation
													End Site
													{
														OFFSET 0.000000 0.000000 0.000000
													}
												}
											}
										}
									}
								}
							}
						}
					}
				}
				JOINT RightShoulder
				{
					OFFSET -1.380118 23.180305 5.214158
					CHANNELS 3 Zrotation Yrotation Xrotation
					JOINT RightArm
					{
						OFFSET -15.037197 0.000013 -5.545605
						CHANNELS 3 Zrotation Yrotation Xrotation
						JOINT RightForeArm
						{
							OFFSET -28.736643 0.000003 -0.002597
							CHANNELS 3 Zrotation Yrotation Xrotation
							JOINT RightHand
							{
								OFFSET -27.133619 -0.000000 0.002612
								CHANNELS 3 Zrotation Yrotation Xrotation
								JOINT RightHandThumb1
								{
									OFFSET -2.274038 -1.383990 3.163128
									CHANNELS 3 Zrotation Yrotation Xrotation
									JOINT RightHandThumb2
									{
										OFFSET -4.011428 -1.827468 1.640914
										CHANNELS 3 Zrotation Yrotation Xrotation
										JOINT RightHandThumb3
										{
											OFFSET -2.794935 -0.000003 -0.000003
											CHANNELS 3 Zrotation Yrotation Xrotation
											JOINT RightHandThumbEnd
											{
												OFFSET -3.183856 0.000004 -0.000000
												CHANNELS 3 Zrotation Yrotation Xrotation
												End Site
												{
													OFFSET 0.000000 0.000000 0.000000
												}
											}
										}
									}
								}
								JOINT RightHandIndex1
								{
									OFFSET -3.253271 -0.520059 2.282866
									CHANNELS 3 Zrotation Yrotation Xrotation
									JOINT RightHandIndex2
									{
										OFFSET -6.341918 0.012473 0.178265
										CHANNELS 3 Zrotation Yrotation Xrotation
										JOINT RightHandIndex3
										{
											OFFSET -3.654875 -0.000009 -0.000000
											CHANNELS 3 Zrotation Yrotation Xrotation
											JOINT RightHandIndex4
											{
												OFFSET -2.327586 0.000000 0.000000
												CHANNELS 3 Zrotation Yrotation Xrotation
												JOINT RightHandIndexEnd
												{
													OFFSET -2.761789 -0.180657 -0.113078
													CHANNELS 3 Zrotation Yrotation Xrotation
													End Site
													{
														OFFSET 0.000000 0.000000 0.000000
													}
												}
											}
										}
									}
								}
								JOINT RightHandMiddle1
								{
									OFFSET -3.168107 0.246594 1.001031
									CHANNELS 3 Zrotation Yrotation Xrotation
									JOINT RightHandMiddle2
									{
										OFFSET -6.180829 -0.258836 -1.000896
										CHANNELS 3 Zrotation Yrotation Xrotation
										JOINT RightHandMiddle3
										{
											OFFSET -4.348906 -0.000000 -0.000001
											CHANNELS 3 Zrotation Yrotation Xrotation
											JOINT RightHandMiddle4
											{
												OFFSET -3.000244 -0.000004 -0.000002
												CHANNELS 3 Zrotation Yrotation Xrotation
												JOINT RightHandMiddleEnd
												{
													OFFSET -2.302518 -0.294371 -0.031706
													CHANNELS 3 Zrotation Yrotation Xrotation
													End Site
													{
														OFFSET 0.000000 0.000000 0.000000
													}
												}
											}
										}
									}
								}
								JOINT RightHandRing1
								{
									OFFSET -2.885694 -0.067952 -0.308858
									CHANNELS 3 Zrotation Yrotation Xrotation
									JOINT RightHandRing2
									{
										OFFSET -5.854198 -0.486132 -1.373732
										CHANNELS 3 Zrotation Yrotation Xrotation
										JOINT RightHandRing3
										{
											OFFSET -4.338814 -0.000004 -0.000000
											CHANNELS 3 Zrotation Yrotation Xrotation
											JOINT RightHandRing4
											{
												OFFSET -2.654905 -0.000004 0.000004
												CHANNELS 3 Zrotation Yrotation Xrotation
												JOINT RightHandRingEnd
												{
													OFFSET -1.933571 0.077525 -0.000053
													CHANNELS 3 Zrotation Yrotation Xrotation
													End Site
													{
														OFFSET 0.000000 0.000000 0.000000
													}
												}
											}
										}
									}
								}
								JOINT RightHandPinky1
								{
									OFFSET -2.866430 -0.342798 -1.584145
									CHANNELS 3 Zrotation Yrotation Xrotation
									JOINT RightHandPinky2
									{
										OFFSET -5.091370 -1.332054 -1.772385
										CHANNELS 3 Zrotation Yrotation Xrotation
										JOINT RightHandPinky3
										{
											OFFSET -3.062666 -0.000006 0.000000
											CHANNELS 3 Zrotation Yrotation Xrotation
											JOINT RightHandPinky4
											{
												OFFSET -1.546527 0.000005 -0.000002
												CHANNELS 3 Zrotation Yrotation Xrotation
												JOINT RightHandPinkyEnd
												{
													OFFSET -1.945122 -0.157721 0.057211
													CHANNELS 3 Zrotation Yrotation Xrotation
													End Site
													{
														OFFSET 0.000000 0.000000 0.000000
													}
												}
											}
										}
									}
								}
							}
						}
					}
				}
			}
		}
	}
	JOINT LeftLeg
	{
		OFFSET 10.043214 -8.434526 2.595655
		CHANNELS 3 Zrotation Yrotation Xrotation
		JOINT LeftShin
		{
			OFFSET -0.000001 -43.221752 -0.802913
			CHANNELS 3 Zrotation Yrotation Xrotation
			JOINT LeftFoot
			{
				OFFSET 0.000001 -42.155094 -3.481523
				CHANNELS 3 Zrotation Yrotation Xrotation
				JOINT LeftToeBase
				{
					OFFSET -0.000000 -5.059475 13.231529
					CHANNELS 3 Zrotation Yrotation Xrotation
					JOINT LeftToeEnd
					{
						OFFSET -0.009607 -1.647615 6.513017
						CHANNELS 3 Zrotation Yrotation Xrotation
						End Site
						{
							OFFSET 0.000000 0.000000 0.000000
						}
					}
				}
			}
		}
	}
	JOINT RightLeg
	{
		OFFSET -10.047277 -8.295260 2.620317
		CHANNELS 3 Zrotation Yrotation Xrotation
		JOINT RightShin
		{
			OFFSET 0.000000 -43.362209 -0.805556
			CHANNELS 3 Zrotation Yrotation Xrotation
			JOINT RightFoot
			{
				OFFSET 0.000002 -42.117393 -3.478399
				CHANNELS 3 Zrotation Yrotation Xrotation
				JOINT RightToeBase
				{
					OFFSET -0.000001 -5.079609 13.284196
					CHANNELS 3 Zrotation Yrotation Xrotation
					JOINT RightToeEnd
					{
						OFFSET 0.009532 -1.634383 6.460591
						CHANNELS 3 Zrotation Yrotation Xrotation
						End Site
						{
							OFFSET 0.000000 0.000000 0.000000
						}
					}
				}
			}
		}
	}
}
MOTION
Frames: 4
Frame Time: 0.033333
1.355866 95.335960 0.863000 0.176485 6.483354 1.059354 0.653073 0.609977 2.806901 -0.464139 0.466400 -4.264641 0.393274 -1.813805 15.017895 -6.252550 7.373661 24.285198 0.510060 5.414981 -3.824532 -3.706459 5.897543 -4.010457 0.000077 -0.000021 0.000004 0.021849 -0.019412 -0.102510 0.716358 -3.728863 -10.675387 -0.688017 3.694048 -10.662046 21.017456 -18.682184 2.967100 -82.529045 -40.149624 -19.938318 178.360397 -37.018948 -179.561569 -2.542161 -12.003554 -11.872478 -5.882102 9.861278 0.702589 -10.936858 -0.360575 7.156196 0.000002 8.774810 -0.000001 -16.432627 17.859623 5.995645 -1.844030 2.498502 -2.507276 -10.163591 4.678940 4.621104 -20.975998 -0.000003 0.000002 -21.226255 2.451693 -3.593993 -0.000000 -0.000006 0.000000 -1.362681 2.240796 -0.746323 -21.334890 0.584909 3.008320 -13.821198 -0.000003 0.000002 -23.887133 -0.249078 -0.839481 -61.248405 2.243028 -1.585080 -0.294024 1.679686 0.833256 -14.218194 0.093215 1.300579 -34.212006 -0.287563 0.967168 -20.033180 0.964535 1.212841 -0.000000 0.000001 -0.000000 -3.440384 0.788232 0.501655 -15.928167 -3.167306 2.999703 -6.338818 -0.000001 0.000001 -18.123415 3.648176 -4.905661 -0.000005 0.000001 -0.000002 -22.386860 25.261885 1.760747 91.410187 44.306816 5.014499 -179.973999 36.965755 -179.539337 -8.308459 11.370085 -11.689499 2.243540 -5.255033 -3.180155 14.282878 -0.826595 6.952495 -0.000001 -12.690592 -0.000002 16.324600 -18.400566 3.126779 1.665665 -1.955920 -2.878299 4.727795 -4.170584 4.993921 11.020513 0.000002 0.000000 12.109033 -3.735710 -2.866780 0.000003 -0.000000 -0.000001 1.291985 -1.928548 -1.498091 14.800114 0.567466 3.865606 14.242556 -1.341736 -6.660650 19.631939 0.143925 -0.648244 50.910713 -1.032054 -5.872128 0.353029 -1.511149 -0.031940 20.222773 3.684303 2.316626 18.787245 0.000003 -0.000001 10.751612 -0.479869 1.397902 -0.000000 0.000001 -0.000002 3.273804 0.305946 -0.580111 21.486795 11.830362 2.266131 8.162916 0.000002 -0.000002 18.399054 -3.798981 -4.940570 0.000003 -0.000001 -0.000002 14.664028 16.761726 -22.900778 -0.306571 -0.790231 26.691317 -16.799404 -15.254385 5.192904 1.656922 -1.883973 -1.716191 0.000000 0.000000 0.000002 -13.660555 -18.069288 0.991380 0.054552 0.731753 25.336145 15.223236 7.780737 -16.554207 -1.462566 0.920391 -2.894890 0.000000 0.000000 -0.000001 
1.368238 95.341324 0.872266 0.139669 6.394631 0.963324 0.704969 0.613327 2.753677 -0.461025 0.497414 -4.289086 0.466734 -1.769906 15.026548 -6.232859 7.372533 24.311100 0.453136 5.448381 -3.824924 -3.780719 5.902271 -3.762443 0.000077 -0.000022 0.000004 0.010395 -0.008239 -0.106556 0.703981 -3.712613 -10.681916 -0.686401 3.698476 -10.673574 20.978552 -18.613424 3.018798 -82.619148 -40.074604 -19.853891 178.245804 -36.940010 -179.474136 -2.688555 -11.907734 -11.886296 -5.882102 9.861278 0.702591 -10.936858 -0.360574 7.156197 0.000002 8.774814 0.000001 -16.401417 17.886881 6.031826 -1.844033 2.498502 -2.507276 -10.163589 4.678941 4.621105 -20.975996 -0.000004 0.000002 -21.226250 2.451693 -3.593993 0.000000 -0.000006 -0.000001 -1.362680 2.240796 -0.746323 -21.334894 0.584909 3.008320 -13.821197 -0.000003 0.000002 -23.887131 -0.249078 -0.839480 -61.262497 2.271250 -1.571019 -0.294024 1.679686 0.833255 -14.218195 0.093215 1.300579 -34.212006 -0.287563 0.967170 -20.033180 0.964535 1.212842 -0.000000 0.000000 -0.000000 -3.440386 0.788233 0.501656 -15.928169 -3.167306 2.999704 -6.338817 -0.000001 0.000001 -18.123411 3.648176 -4.905661 -0.000005 0.000000 -0.000002 -22.335056 25.232393 1.846142 91.715996 44.241146 5.170543 179.880630 36.946404 -179.600494 -8.371994 11.310341 -11.580948 2.243540 -5.255033 -3.180154 14.282877 -0.826594 6.952497 0.000000 -12.690591 -0.000000 16.313940 -18.367254 3.158304 1.665665 -1.955920 -2.878297 4.727794 -4.170584 4.993918 11.020512 0.000003 0.000002 12.109034 -3.735712 -2.866776 0.000002 -0.000000 0.000001 1.291984 -1.928547 -1.498087 14.800117 0.567467 3.865605 14.242551 -1.341735 -6.660648 19.631937 0.143924 -0.648241 50.930794 -1.012816 -5.864241 0.353029 -1.511149 -0.031940 20.222771 3.684304 2.316631 18.787245 0.000003 0.000003 10.751611 -0.479868 1.397904 -0.000000 0.000001 -0.000001 3.273804 0.305947 -0.580110 21.486790 11.830360 2.266132 8.162919 0.000002 -0.000002 18.399057 -3.798981 -4.940566 0.000003 0.000000 0.000000 14.816642 16.874506 -22.730101 -0.322841 -0.780063 26.663626 -16.912622 -15.289458 5.316413 1.659085 -1.900451 -1.699270 0.000000 0.000000 0.000002 -13.700202 -18.047852 1.156206 0.056068 0.721567 25.194864 15.245043 7.860540 -16.464636 -1.460735 0.932751 -2.807802 0.000000 0.000000 -0.000001 
1.450305 95.352493 0.901152 0.115018 6.380939 0.871164 0.730369 0.602970 2.709188 -0.458139 0.505186 -4.311207 0.538006 -1.760272 15.057218 -6.191158 7.356695 24.379185 0.420846 5.465264 -3.832539 -3.878609 5.935795 -3.552423 0.000076 -0.000023 0.000005 0.006931 0.003385 -0.108053 0.690871 -3.695562 -10.683742 -0.687293 3.708765 -10.679787 20.935226 -18.561735 3.028102 -82.798851 -39.957943 -19.749569 178.204758 -36.877010 -179.425201 -2.823658 -11.865448 -11.937346 -5.882101 9.861277 0.702591 -10.936860 -0.360574 7.156196 0.000002 8.774813 0.000000 -16.377705 17.936998 6.074946 -1.844031 2.498502 -2.507275 -10.163590 4.678940 4.621103 -20.975994 -0.000004 0.000002 -21.226255 2.451692 -3.593993 0.000000 -0.000006 0.000001 -1.362680 2.240796 -0.746323 -21.334887 0.584908 3.008319 -13.821198 -0.000003 0.000001 -23.887129 -0.249079 -0.839482 -61.284096 2.305626 -1.571479 -0.294025 1.679687 0.833255 -14.218192 0.093215 1.300579 -34.212013 -0.287565 0.967169 -20.033180 0.964535 1.212841 -0.000000 0.000000 -0.000000 -3.440384 0.788233 0.501655 -15.928169 -3.167306 2.999703 -6.338818 -0.000001 0.000001 -18.123413 3.648175 -4.905662 -0.000005 0.000000 -0.000002 -22.250731 25.189083 1.971416 91.965591 44.208351 5.230318 179.683838 36.931129 -179.702911 -8.471175 11.311875 -11.623240 2.243541 -5.255031 -3.180158 14.282879 -0.826594 6.952495 -0.000002 -12.690588 0.000000 16.261824 -18.326372 3.173202 1.665665 -1.955920 -2.878299 4.727795 -4.170583 4.993920 11.020513 0.000004 0.000001 12.109034 -3.735707 -2.866779 0.000002 -0.000000 0.000001 1.291984 -1.928547 -1.498089 14.800117 0.567467 3.865603 14.242556 -1.341733 -6.660647 19.631941 0.143924 -0.648245 51.031677 -1.020660 -5.846133 0.353029 -1.511149 -0.031941 20.222771 3.684305 2.316627 18.787245 0.000004 -0.000000 10.751610 -0.479868 1.397903 -0.000001 -0.000000 -0.000002 3.273804 0.305947 -0.580109 21.486795 11.830360 2.266130 8.162919 0.000003 -0.000002 18.399054 -3.798979 -4.940566 0.000002 -0.000001 -0.000003 14.752157 16.941572 -22.675316 -0.334886 -0.772781 26.796152 -16.827209 -15.374323 5.149454 1.661858 -1.906815 -1.673262 -0.000000 0.000000 0.000002 -13.771363 -18.040636 1.337549 0.076983 0.709770 25.032589 15.299006 7.863834 -16.352655 -1.462420 0.950750 -2.745089 0.000000 0.000000 -0.000001 
1.566200 95.355125 0.909894 0.090767 6.327944 0.802582 0.747648 0.616871 2.671900 -0.451049 0.479768 -4.336825 0.586264 -1.752743 15.073682 -6.149767 7.319913 24.422205 0.410008 5.521649 -3.812979 -3.960475 5.977416 -3.419071 0.000077 -0.000022 0.000005 0.000677 0.021276 -0.101480 0.684855 -3.689105 -10.678288 -0.693365 3.724148 -10.675123 20.898443 -18.506218 3.064803 -83.069756 -39.853603 -19.657883 178.280991 -36.793884 -179.451889 -2.926060 -11.817173 -12.076526 -5.882102 9.861279 0.702591 -10.936858 -0.360574 7.156196 0.000000 8.774814 -0.000001 -16.378897 17.978352 6.106535 -1.844031 2.498502 -2.507275 -10.163589 4.678941 4.621105 -20.975996 -0.000002 0.000003 -21.226255 2.451694 -3.593994 0.000000 -0.000006 0.000001 -1.362680 2.240796 -0.746323 -21.334894 0.584910 3.008320 -13.821197 -0.000002 0.000002 -23.887135 -0.249076 -0.839482 -61.302650 2.337671 -1.554517 -0.294025 1.679686 0.833255 -14.218195 0.093216 1.300580 -34.211998 -0.287563 0.967170 -20.033180 0.964535 1.212841 -0.000000 0.000000 -0.000000 -3.440384 0.788232 0.501655 -15.928169 -3.167305 2.999704 -6.338818 -0.000000 0.000001 -18.123415 3.648177 -4.905661 -0.000005 -0.000000 -0.000002 -22.140451 25.178455 2.098007 92.227707 44.176170 5.333684 179.509735 36.937229 -179.814972 -8.613739 11.370761 -11.745456 2.243541 -5.255032 -3.180157 14.282877 -0.826595 6.952495 0.000000 -12.690587 0.000001 16.288960 -18.312147 3.170929 1.665665 -1.955920 -2.878298 4.727794 -4.170583 4.993918 11.020511 0.000002 -0.000001 12.109032 -3.735710 -2.866779 0.000003 -0.000000 -0.000000 1.291984 -1.928547 -1.498088 14.800114 0.567466 3.865602 14.242554 -1.341735 -6.660650 19.631939 0.143924 -0.648245 51.212662 -0.991419 -5.824292 0.353028 -1.511149 -0.031939 20.222771 3.684303 2.316626 18.787249 0.000002 -0.000001 10.751613 -0.479867 1.397903 0.000001 0.000001 -0.000002 3.273804 0.305946 -0.580109 21.486790 11.830359 2.266129 8.162916 0.000003 -0.000003 18.399054 -3.798980 -4.940568 0.000002 0.000001 -0.000001 14.729353 16.993263 -22.603243 -0.331546 -0.762240 26.870224 -16.797071 -15.391050 4.997014 1.660510 -1.908452 -1.636932 0.000000 0.000000 0.000002 -13.827486 -18.006165 1.476468 0.079439 0.692966 24.880682 15.342405 7.885752 -16.278488 -1.466067 0.966026 -2.744465 0.000000 0.000000 -0.000001 
